<?xml version="1.0" encoding="UTF-8"?>
<svg id="_图层_2" data-name="图层 2" xmlns="http://www.w3.org/2000/svg" viewBox="0 0 787.18 700.96">
  <defs>
    <style>
      .cls-1 {
        fill: #bc5635;
      }

      .cls-2 {
        fill: #e17b40;
      }

      .cls-3 {
        fill: #cdac81;
      }

      .cls-4 {
        fill: #c05537;
      }

      .cls-5 {
        fill: #e17b3f;
      }

      .cls-6 {
        fill: #c05638;
      }

      .cls-7 {
        fill: #bf5637;
      }

      .cls-8 {
        fill: #bf5537;
      }

      .cls-9 {
        fill: #e07b40;
      }
    </style>
  </defs>
  <g id="_图层_2-2" data-name=" 图层 2">
    <g id="_图层_1-2" data-name=" 图层 1-2">
      <g>
        <g>
          <path class="cls-3" d="M712.41,505.77c-5.45,3.25-22.18,13.76-22.31,5.79l-.59-34.19c1.72-3.68-3.37-81.32,4.57-80.64,16.17-8.12,71.95-35.92,88.96-44.65,1.06-.53,3.81-1.32,3.81.57l.32,107.78c.02,5.75-3.59,10-8.31,12.01-7.13,3.03-60.51,29.78-66.46,33.33h0Z"/>
          <path class="cls-3" d="M616.7,327.58l62.39-30.73c4.28-2.17,7.56-3.12,12.03-.63,27.97,15.87,61.59,29.08,88.84,46.45-21.12,10.85-68.12,35.44-88.67,46.17-10.62,5.55-30.53-10.69-43.01-16.55l-25.2-11.83c-37.27-23.25-41.92-11.55-6.37-32.87h-.01Z"/>
          <path class="cls-3" d="M658.22,505.8c5.45,3.25,22.18,13.76,22.31,5.79l.59-34.19c-1.72-3.68,3.37-81.32-4.57-80.64-16.17-8.12-71.95-35.92-88.96-44.65-1.06-.53-3.81-1.32-3.81.57l-.32,107.78c-.02,5.75,3.59,10,8.31,12.01,7.13,3.03,60.51,29.78,66.46,33.33h0Z"/>
        </g>
        <path class="cls-4" d="M359.59,199.97c-5.45,85.5-39.49,136.53-84.85,205.14-66.08,103.54-47.97,218.2,34.36,285.17-6.92,14.79-83.41-31.45-92.58-40.64-68.44-51.68-103-145.58-95.11-228.88,4.27-54.51,21.22-112.06,54.8-155.18,150.59-26.5,74.17-223.04-45.52-150.62-54.98,42.39-36.88,116.99,21.6,144.27-15.66,25.72-31.72,57.37-40.69,87.59C-44.46,288.64-34.06,53.89,125.37,9.04c120.32-41.51,246.89,66.36,234.22,190.93h0Z"/>
        <path class="cls-6" d="M399.83,429.21c-1.29,65.45-.16,206.54-.77,270.94-4.61.39-14.89.9-19.33-.14-164.91-28.6-147.65-269.52,20.1-270.81h0Z"/>
        <path class="cls-9" d="M176.2,265.58c4.52-6.14-21.26-6.3-23.92-6.36-58.48-27.2-76.55-102.04-21.59-144.27,119.64-72.42,196.13,124.09,45.51,150.62h0Z"/>
        <path class="cls-2" d="M608.24,111.09c5.53,3.01,10.52,6.7,15.29,10.76,8.98,7.52,16.64,15.01,22.87,24.44,14.06,23.54,42.32,64.61,43.34,87.1-.36,5.76-2.87,10.37-6.16,15.64-41.55,64.68-149.8,80.97-203.1,23.01-48.14-53.64-30.14-133.29,34.14-164.64,10.25-4.99,21.98-7.65,33.39-8.75,22.65-2.2,40.53,2.69,60.05,12.35l.18.1h0ZM601.15,184.97c.18-11.08-8.86-20.01-19.63-20.25-14.07-.85-24.46,11.68-21.13,25.41,5.6,22.98,40.94,18.92,40.76-4.95v-.21Z"/>
        <path class="cls-2" d="M399.06,700.15c.6-64.1-.52-205.79.77-270.94,56.78-.95,108.48,36.01,127.36,88.91,28.19,71.64-21.6,120.19-7.59,121.04l26.17.63c25.59.62,53.24,30.01,52.78,59.57-31.13,3.45-170.09.15-199.48.78h0Z"/>
        <path class="cls-5" d="M455.93,268.16c-28.35,78.2,28.62,166.29,107.39,185.87-1.76-.06-3.61-.54-5.66-.26-.73,22.34.49,37.84-2.12,59.58.71-5.96-5.38,36.37-5.95,20.25-28.68-136.36-215.41-166.97-282.82-44.32-2.55,5.71-5.47-3.11,2.24-21.94,20.8-54.07,41.01-73.71,69.92-122.4,31.49-48.7,64.77-103.71,96.89-151.68,1.8,28.64,6.97,50.67,20.11,74.88v.02Z"/>
        <path class="cls-7" d="M528.2,101.6c-2.78,3.27-7.26,3.82-11.9,5.72-33.18,13.67-54.26,43.31-62.38,77.51.64-21.45-1.39-163.95.7-181.89,13.98,13.38,37.49,50.32,50.1,65.78,5.81,8.22,19.5,24.07,23.49,32.88h-.01Z"/>
        <path class="cls-8" d="M609.37,398.45c14.36,10.85,34.41,12.85,52.49,13.04,9.25-.33,1.13,22.95-13.13,33.62-9.61,7.2-20.86,12.39-33.1,12.57-101.94,11.49-193.99-90.41-159.7-189.52,17.54,25.28,57.72,55.83,97.46,55.18,8.37.41,2.86,11.94,14.67,33.97,9.69,18.07,24.08,32.52,41.3,41.14h.01Z"/>
        <path class="cls-1" d="M576.89,83.37c-28.14-5-37.97,4.54-43.78-3.76-6.64-9.5-13.61-14.84-13.56-23.92.9-11.14-1.82-42.58,2.28-52.73,10.43,12.5,48.02,65.09,58.72,78.84,1.17,1.57-2.73,1.74-3.65,1.58h-.01Z"/>
      </g>
    </g>
  </g>
</svg>